<svg version="1.2" xmlns="http://www.w3.org/2000/svg" viewBox="0 0 32 32" width="32" height="32"><style>.a{fill:#95e1d3}</style><path fill-rule="evenodd" class="a" d="m16 32c-8.8 0-16-7.2-16-16 0-8.8 7.2-16 16-16 8.8 0 16 7.2 16 16 0 8.8-7.2 16-16 16zm0-29c-7.2 0-13 5.8-13 13 0 7.2 5.8 13 13 13 7.2 0 13-5.8 13-13 0-7.2-5.8-13-13-13zm0 22.5c-5.2 0-9.5-4.3-9.5-9.5 0-5.2 4.3-9.5 9.5-9.5 5.2 0 9.5 4.3 9.5 9.5 0 5.2-4.3 9.5-9.5 9.5zm0-16c-3.6 0-6.5 2.9-6.5 6.5 0 3.6 2.9 6.5 6.5 6.5 3.6 0 6.5-2.9 6.5-6.5 0-3.6-2.9-6.5-6.5-6.5zm0 9.5c-1.7 0-3-1.3-3-3 0-1.7 1.3-3 3-3 1.7 0 3 1.3 3 3 0 1.7-1.3 3-3 3z"/></svg>