<svg version="1.2" xmlns="http://www.w3.org/2000/svg" viewBox="0 0 16 16" width="16" height="16"><style>.a{fill:#95e1d3}</style><path fill-rule="evenodd" class="a" d="m16 8q0 0.8-0.2 1.6-0.1 0.8-0.4 1.5-0.3 0.7-0.8 1.4-0.4 0.6-0.9 1.2-0.6 0.5-1.2 0.9-0.7 0.5-1.4 0.8-0.7 0.3-1.5 0.5-0.8 0.1-1.6 0.1-0.8 0-1.6-0.1-0.8-0.2-1.5-0.5-0.7-0.3-1.4-0.8-0.6-0.4-1.2-0.9-0.5-0.6-0.9-1.2-0.5-0.7-0.8-1.4-0.3-0.7-0.4-1.5-0.2-0.8-0.2-1.6 0-0.8 0.2-1.6 0.1-0.8 0.4-1.5 0.3-0.7 0.8-1.4 0.4-0.6 0.9-1.1 0.6-0.6 1.2-1 0.7-0.5 1.4-0.8 0.7-0.3 1.5-0.4 0.8-0.2 1.6-0.2 0.8 0 1.6 0.2 0.8 0.1 1.5 0.4 0.7 0.3 1.4 0.8 0.6 0.4 1.2 1 0.5 0.5 0.9 1.1 0.5 0.7 0.8 1.4 0.3 0.7 0.4 1.5 0.2 0.8 0.2 1.6zm-1.2-0.1c-0.1 0-2.4-0.5-4.7-0.2q-0.1-0.2-0.2-0.3-0.2-0.5-0.4-1c2.7-1.1 3.8-2.7 3.8-2.7 0.9 1.1 1.5 2.6 1.5 4.2zm-2.3-5c0 0-1 1.5-3.6 2.5-1.1-2.2-2.4-3.9-2.5-4q0.8-0.2 1.6-0.2c1.7 0 3.3 0.6 4.5 1.7zm-6.1-1.5q0 0 0 0 0 0-0.1 0 0.1 0 0.1 0zm-1.3 0.4c0.1 0.2 1.3 1.9 2.5 4-3.3 0.8-6.1 0.8-6.3 0.8 0.5-2.1 1.9-3.9 3.8-4.8zm-3.9 6.2q0-0.1 0-0.2c0.1 0 3.5 0.1 7-1q0.3 0.6 0.5 1.2-0.1 0-0.2 0.1c-3.7 1.2-5.6 4.5-5.6 4.5q0 0 0 0c-1.1-1.2-1.7-2.8-1.7-4.6zm6.8 6.8c-1.7 0-3.2-0.5-4.4-1.5q0.2 0.1 0.2 0.1c0 0 1.3-2.9 5.4-4.3q0 0 0 0c1 2.5 1.4 4.6 1.5 5.2q-1.3 0.5-2.7 0.5zm3.8-1.1c-0.1-0.4-0.4-2.4-1.3-4.9 2.2-0.4 4.1 0.3 4.2 0.3-0.3 1.9-1.3 3.5-2.9 4.6z"/></svg>