<svg version="1.2" xmlns="http://www.w3.org/2000/svg" viewBox="0 0 16 14" width="16" height="14"><style>.a{fill:#95e1d3}</style><path fill-rule="evenodd" class="a" d="m13.5 3.7v2.5h-1v-2.5h-2.5v-1h2.5v-2.4h1v2.4h2.5v1zm-6.9-2.5c0.9 0.5 1.4 1.3 1.4 2.4 0 0.9-0.5 1.5-1.2 2.1-0.7 0.5-0.9 0.7-0.9 1.2 0 0.3 0.8 1 1.2 1.3 1.1 0.7 1.4 1.4 1.4 2.6 0 1.5-1.4 3.2-4.1 3.2-2.4 0-4.4-1.1-4.4-2.6 0-1.5 1.9-3 4.2-3q0.4 0 0.7 0c-0.3-0.3-0.5-0.7-0.5-1.2 0-0.2 0.1-0.5 0.2-0.7q-0.2 0-0.4 0c-1.9 0-3.2-1.4-3.2-3.1 0-1.6 1.8-3.1 3.6-3.1 1.1 0 4.3 0 4.3 0l-1 0.9zm-1.9 7.6c-1.6 0-3.1 1-3.1 2.2 0 1.2 1.2 2 2.8 2 2.3 0 3.1-0.8 3.1-2q0-0.2-0.1-0.4c-0.1-0.7-0.8-1-1.7-1.6q-0.4-0.2-1-0.2zm1.8-5.2c-0.2-1.4-1.3-2.5-2.3-2.6-1.1 0-1.9 1.1-1.7 2.5 0.2 1.4 1.3 2.5 2.3 2.6 1.1 0 1.9-1.1 1.7-2.5z"/></svg>