<svg version="1.2" xmlns="http://www.w3.org/2000/svg" viewBox="0 0 16 16" width="16" height="16"><style>.a{fill:#95e1d3}</style><path fill-rule="evenodd" class="a" d="m14 16h-12c-1.1 0-2-0.9-2-2v-12c0-1.1 0.9-2 2-2h12c1.1 0 2 0.9 2 2v12c0 1.1-0.9 2-2 2zm-6-11.1c-1.2 0-2.3 0.8-2.8 1.8q0 0 0 0-0.1 0.1-0.1 0.3 0 0 0 0-0.1 0.2-0.1 0.3 0 0 0 0.1-0.1 0.1-0.1 0.2 0 0 0 0.1 0 0.1 0 0.3c0 1.7 1.4 3.1 3.1 3.1 1.7 0 3.1-1.4 3.1-3.1q0-0.2 0-0.3 0-0.1 0-0.1 0-0.1-0.1-0.2 0-0.1 0-0.1 0-0.1-0.1-0.3 0 0 0 0 0-0.2-0.1-0.3 0 0 0 0c-0.5-1-1.6-1.8-2.8-1.8zm6.2-2.3c0-0.4-0.4-0.8-0.8-0.8h-1.6c-0.4 0-0.8 0.4-0.8 0.8v1.6c0 0.5 0.4 0.8 0.8 0.8h1.6c0.4 0 0.8-0.3 0.8-0.8zm0 4.1h-1.5q0.2 0.6 0.2 1.3c0 2.7-2.2 4.9-4.9 4.9-2.7 0-4.9-2.2-4.9-4.9q0-0.7 0.2-1.3h-1.5v6.7c0 0.5 0.4 0.8 0.8 0.8h10.8c0.4 0 0.8-0.3 0.8-0.8z"/></svg>