<svg version="1.2" xmlns="http://www.w3.org/2000/svg" viewBox="0 0 30 30" width="30" height="30"><style>.a{fill:#95e1d3}</style><path fill-rule="evenodd" class="a" d="m30 24c0 0.6-0.4 1.2-1 1.4v1.7c0.6 0.2 1 0.7 1 1.4 0 0.8-0.7 1.5-1.5 1.5-0.7 0-1.2-0.4-1.4-1h-1.7c-0.2 0.6-0.7 1-1.4 1-0.7 0-1.2-0.4-1.4-1h-1.7c-0.2 0.6-0.7 1-1.4 1-0.7 0-1.2-0.4-1.4-1h-1.7c-0.2 0.6-0.7 1-1.4 1-0.7 0-1.2-0.4-1.4-1h-1.7c-0.2 0.6-0.7 1-1.4 1-0.7 0-1.2-0.4-1.4-1h-1.7c-0.2 0.6-0.7 1-1.4 1-0.7 0-1.2-0.4-1.4-1h-1.7c-0.2 0.6-0.7 1-1.4 1-0.8 0-1.5-0.7-1.5-1.5 0-0.7 0.4-1.2 1-1.4v-1.7c-0.6-0.2-1-0.8-1-1.4 0-0.7 0.4-1.2 1-1.4v-1.7c-0.6-0.2-1-0.7-1-1.4 0-0.7 0.4-1.2 1-1.4v-1.7c-0.6-0.2-1-0.7-1-1.4 0-0.7 0.4-1.2 1-1.4v-1.7c-0.6-0.2-1-0.7-1-1.4 0-0.7 0.4-1.2 1-1.4v-1.7c-0.6-0.2-1-0.8-1-1.4 0-0.7 0.4-1.2 1-1.4v-1.7c-0.6-0.2-1-0.7-1-1.4 0-0.8 0.7-1.5 1.5-1.5 0.7 0 1.2 0.4 1.4 1h1.7c0.2-0.6 0.7-1 1.4-1 0.7 0 1.2 0.4 1.4 1h1.7c0.2-0.6 0.7-1 1.4-1 0.7 0 1.2 0.4 1.4 1h1.7c0.2-0.6 0.7-1 1.4-1 0.7 0 1.2 0.4 1.4 1h1.7c0.2-0.6 0.7-1 1.4-1 0.7 0 1.2 0.4 1.4 1h1.7c0.2-0.6 0.7-1 1.4-1 0.7 0 1.2 0.4 1.4 1h1.7c0.2-0.6 0.7-1 1.4-1 0.8 0 1.5 0.7 1.5 1.5 0 0.7-0.4 1.2-1 1.4v1.7c0.6 0.2 1 0.7 1 1.4 0 0.6-0.4 1.2-1 1.4v1.7c0.6 0.2 1 0.7 1 1.4 0 0.7-0.4 1.2-1 1.4v1.7c0.6 0.2 1 0.7 1 1.4 0 0.7-0.4 1.2-1 1.4v1.7c0.6 0.2 1 0.7 1 1.4 0 0.7-0.4 1.2-1 1.4v1.7c0.6 0.2 1 0.7 1 1.4zm-4-20h-22v22h22zm-13 16l7-8.5 4.5 7v6h-19l6-6zm-3-7c-1.7 0-3-1.3-3-3 0-1.7 1.3-3 3-3 1.7 0 3 1.3 3 3 0 1.7-1.3 3-3 3z"/></svg>