<svg version="1.2" xmlns="http://www.w3.org/2000/svg" viewBox="0 0 16 14" width="16" height="14"><style>.a{fill:#95e1d3}</style><path class="a" d="m10.9 0.5c1.3 0 1.9 0.5 2.6 1 0.5 0 1.2-0.3 1.7-0.5q0.2-0.1 0.4-0.2c-0.3 0.6-0.6 1.1-1.1 1.5-0.1 0.1-0.2 0.2-0.4 0.3q0 0 0 0c0.8 0 1.3-0.4 1.9-0.5q0 0 0 0c-0.3 0.4-0.7 0.9-1.1 1.2q-0.3 0.2-0.5 0.4c0 0.8 0 1.5-0.2 2.2-0.8 3.6-3 6.1-6.4 7.2-1.2 0.4-3.2 0.6-4.7 0.2q-1-0.2-1.9-0.6-0.5-0.2-0.9-0.5-0.2-0.1-0.3-0.2c0.3 0 0.7 0.1 1 0.1 0.4-0.1 0.7-0.1 1-0.1 0.7-0.2 1.4-0.4 2-0.8 0.2-0.1 0.6-0.3 0.8-0.5-0.3 0-0.7-0.1-0.9-0.2-1.1-0.4-1.7-1.1-2.1-2.1 0.3 0 1.2 0.1 1.5-0.1-0.5 0-0.8-0.2-1.1-0.4-0.9-0.5-1.6-1.4-1.6-2.8q0.2 0.1 0.4 0.1 0.3 0.2 0.7 0.2c0.1 0.1 0.3 0.1 0.4 0.1q0 0 0 0c-0.2-0.2-0.4-0.3-0.6-0.6-0.6-0.6-1.1-1.7-0.7-2.9q0.1-0.5 0.3-0.9 0 0 0 0c0.1 0.2 0.2 0.3 0.3 0.4q0.5 0.5 1 0.9c1.2 0.9 2.3 1.5 4 1.9 0.4 0.1 1 0.2 1.5 0.2-0.2-0.4-0.1-1.1 0-1.5 0.3-1.1 0.9-1.8 1.9-2.2q0.3-0.2 0.7-0.2 0.2-0.1 0.4-0.1z"/></svg>