<svg version="1.2" xmlns="http://www.w3.org/2000/svg" viewBox="0 0 32 23" width="32" height="23"><style>.a{fill:#fff}</style><path fill-rule="evenodd" class="a" d="m31.9 21.5q0 0 0 0c0 0.6-0.4 1-0.9 1h-7.5c0.6-0.1 1-0.6 1-1.2q0 0 0 0c0 0 0-4.5-3.3-6.2-1.4-0.7-1.5-0.5-2.2-0.7v-1.9c0 0-0.7-0.6-1-2.5-0.5 0.2-0.6-0.5-0.7-1 0-0.4-0.2-1.8 0.4-1.6-0.2-0.9-0.3-1.8-0.2-2.2 0.1-1.5 1.6-3.1 3.9-3.2 2.6 0.1 3.7 1.7 3.8 3.2 0 0.4-0.1 1.3-0.2 2.2 0.6-0.2 0.4 1.2 0.3 1.6 0 0.5-0.2 1.2-0.6 1-0.3 1.9-1.1 2.5-1.1 2.5l0.1 1.9c0 0 0.5 0.3 2.5 1.1 2.1 0.9 1.4 0.2 3.1 1.1 2.7 1.3 2.7 4.9 2.7 4.9zm-15-6.7c2.3 1 1.6 0.3 3.4 1.2 2.9 1.4 2.9 5.4 2.9 5.4q0 0 0 0c0 0.6-0.5 1.1-1.1 1.1h-21.1c-0.6 0-1.1-0.5-1.1-1.1q0 0 0 0c0 0 0-4 2.9-5.4 1.9-0.9 1.1-0.2 3.4-1.1 2.3-1 2.8-1.3 2.8-1.3v-2.1c0 0-0.8-0.7-1.1-2.7-0.5 0.2-0.7-0.6-0.7-1.1 0-0.5-0.3-2 0.3-1.8-0.1-1-0.2-1.9-0.2-2.4 0.2-1.7 1.8-3.4 4.3-3.5 2.9 0.1 4 1.8 4.2 3.5 0.1 0.5 0 1.4-0.2 2.4 0.7-0.2 0.4 1.3 0.4 1.8-0.1 0.5-0.3 1.2-0.8 1.1-0.2 2-1.1 2.7-1.1 2.7v2.1c0 0 0.6 0.3 2.8 1.2z"/></svg>