<svg version="1.2" xmlns="http://www.w3.org/2000/svg" viewBox="0 0 20 12" width="20" height="12"><style>.a{fill:#95e1d3}</style><path fill-rule="evenodd" class="a" d="m19.7 5.8q0 0 0 0 0 0 0 0 0 0 0 0 0 0 0 0.1 0 0 0 0 0 0.2-0.2 0.4-0.3 0.3-0.7 0.7c-1.2 1.2-2.6 2.3-4.1 3.1-0.9 0.5-2 0.9-3.1 1.1q-1.7 0.3-3.5 0c-2.1-0.5-3.9-1.6-5.5-2.9-0.8-0.6-1.5-1.3-2.1-2-0.3-0.4-0.3-0.8 0-1.1q0.3-0.4 0.6-0.7c1.2-1.2 2.6-2.3 4.1-3.1 1-0.5 2.1-0.9 3.1-1.1q1.8-0.4 3.6 0c2 0.5 3.9 1.6 5.5 2.9 0.7 0.6 1.5 1.3 2.1 2q0.2 0.2 0.2 0.4 0 0 0 0 0 0 0 0 0 0.1 0 0.1 0 0 0 0 0 0 0 0 0 0 0 0 0 0.1 0 0.1zm-9.7-3.9c-2 0-3.7 1.7-3.7 3.7 0 2 1.7 3.6 3.7 3.6 2 0 3.6-1.6 3.6-3.6 0-2-1.6-3.7-3.6-3.7zm0 5.5c-1 0-1.8-0.8-1.8-1.8 0-1 0.8-1.8 1.8-1.8 1 0 1.8 0.8 1.8 1.8 0 1-0.8 1.8-1.8 1.8z"/></svg>